<svg width="19" height="32" viewBox="0 0 19 32" xmlns="http://www.w3.org/2000/svg">
<style>
		path {
			fill: #2F354B;
		}
		@media (prefers-color-scheme: dark) {
			path {
				fill: #fff;
			}
		}
	</style>
<path d="M18.3332 16.3269L9.16425 0L0 16.3269L9.16894 22.3167L18.3332 16.3269ZM9.83017 10.8587V3.92413L15.6208 14.2354L9.83017 10.8587ZM16.1633 16.1241L9.83017 20.2638V12.4313L16.1633 16.1241ZM8.49799 10.8587L2.71334 14.2319L8.49799 3.92585V10.8587ZM8.49799 12.4313V20.2579L2.16786 16.1224L8.49799 12.4313Z"/>
<path d="M9.16376 24.252L0.00488281 18.2622L9.1641 32.0001L18.333 18.2622L9.16376 24.252ZM8.44819 25.405L8.49784 25.4377V28.58L4.78343 23.0085L8.44819 25.405ZM13.5521 23.0061L9.83002 28.5828V25.4374L9.87933 25.405L13.5521 23.0061Z"/>
</svg>
